HIERARCHY
ROOT Hips
{
	OFFSET 0.00000 0.00000 0.00000
	CHANNELS 6 Xposition Yposition Zposition Zrotation Yrotation Xrotation 
	JOINT LHipJoint
	{
		OFFSET 0 0 0
		CHANNELS 3 Zrotation Yrotation Xrotation
		JOINT LeftHip
		{
			OFFSET 1.30186 -1.90722 0.65024
			CHANNELS 3 Zrotation Yrotation Xrotation
			JOINT LeftKnee
			{
				OFFSET 2.56413 -7.04489 0.00000
				CHANNELS 3 Zrotation Yrotation Xrotation
				JOINT LeftAnkle
				{
					OFFSET 2.79321 -7.67428 0.00000
					CHANNELS 3 Zrotation Yrotation Xrotation
					JOINT LeftToe
					{
						OFFSET 0.15723 -0.43198 2.08537
						CHANNELS 3 Zrotation Yrotation Xrotation
						End Site
						{
							OFFSET 0.00000 -0.00000 1.07411
						}
					}
				}
			}
		}
	}
	JOINT RHipJoint
	{
		OFFSET 0 0 0
		CHANNELS 3 Zrotation Yrotation Xrotation
		JOINT RightHip
		{
			OFFSET -1.28627 -1.90723 0.65024
			CHANNELS 3 Zrotation Yrotation Xrotation
			JOINT RightKnee
			{
				OFFSET -2.56567 -7.04913 0.00000
				CHANNELS 3 Zrotation Yrotation Xrotation
				JOINT RightAnkle
				{
					OFFSET -2.75597 -7.57198 0.00000
					CHANNELS 3 Zrotation Yrotation Xrotation
					JOINT RightToe
					{
						OFFSET -0.17500 -0.48081 2.22901
						CHANNELS 3 Zrotation Yrotation Xrotation
						End Site
						{
							OFFSET -0.00000 -0.00000 1.14762
						}
					}
				}
			}
		}
	}
	JOINT lowerback
	{
		OFFSET 0 0 0
		CHANNELS 3 Zrotation Yrotation Xrotation
		JOINT Chest
		{
			OFFSET -0.04522 2.07467 -0.16566
			CHANNELS 3 Zrotation Yrotation Xrotation
			JOINT Chest2
			{
				OFFSET -0.01178 2.08825 -0.05393
				CHANNELS 3 Zrotation Yrotation Xrotation
				JOINT lowerneck
				{
					OFFSET 0 0 0
					CHANNELS 3 Zrotation Yrotation Xrotation
					JOINT Neck
					{
						OFFSET -0.05182 1.80489 0.16014
						CHANNELS 3 Zrotation Yrotation Xrotation
						JOINT Head
						{
							OFFSET 0.14739 1.78840 -0.33342
							CHANNELS 3 Zrotation Yrotation Xrotation
							End Site
							{
								OFFSET 0.04364 1.83899 -0.13460
							}
						}
					}
				}
				JOINT LeftCollar
				{
					OFFSET 0 0 0
					CHANNELS 3 Zrotation Yrotation Xrotation
					JOINT LeftShoulder
					{
						OFFSET 3.01264 1.29090 -0.06579
CHANNELS 3 Zrotation Xrotation Yrotation
						JOINT LeftElbow
						{
OFFSET 0 -5.556800 0.000000
CHANNELS 3 Zrotation Xrotation Yrotation
							JOINT LeftWrist
							{
OFFSET 0 -3.639790 -0.000000
CHANNELS 3 Zrotation Xrotation Yrotation
								JOINT lhand
								{
									OFFSET 0 0 0
CHANNELS 3 Zrotation Xrotation Yrotation
									JOINT LFingers
									{
OFFSET 0 -0.569420 -0.000000
CHANNELS 3 Zrotation Xrotation Yrotation
										End Site
										{
OFFSET 0 -0.459080 -0.000000
										}
									}
								}
								JOINT LThumb
								{
OFFSET 0 0.000000 0.000000
CHANNELS 3 Zrotation Xrotation Yrotation
									End Site
									{
OFFSET 0 -0.466090 0.466090
									}
								}
							}
						}
					}
				}
				JOINT RightCollar
				{
					OFFSET 0 0 0
					CHANNELS 3 Zrotation Yrotation Xrotation
					JOINT RightShoulder
					{
						OFFSET -3.15796 1.37283 -0.36748
CHANNELS 3 Zrotation Xrotation Yrotation
						JOINT RightElbow
						{
OFFSET 0 -5.343390 0.000000
CHANNELS 3 Zrotation Xrotation Yrotation
							JOINT RightWrist
							{
OFFSET 0 -3.651010 -0.000000
CHANNELS 3 Zrotation Xrotation Yrotation
								JOINT rhand
								{
									OFFSET 0 0 0
CHANNELS 3 Zrotation Xrotation Yrotation
									JOINT RFingers
									{
OFFSET 0 -0.694250 -0.000000
CHANNELS 3 Zrotation Xrotation Yrotation
										End Site
										{
OFFSET 0 -0.559720 -0.000000
										}
									}
								}
								JOINT RThumb
								{
OFFSET 0 0.000000 0.000000
CHANNELS 3 Zrotation Xrotation Yrotation
									End Site
									{
OFFSET 0 -0.568270 0.568270
									}
								}
							}
						}
					}
				}
			}
		}
	}
}
MOTION
Frames: 12
Frame Time: 0.008333333333333333
10.763990 17.651579 2.561474 5.698270 -13.824983 -364.550129 0.000000 0.000000 0.000000 -10.517297 0.364467 -17.141948 5.982152 14.409275 44.906799 0.577538 6.155948 -17.910916 1.666571 -8.133882 -23.121614 0.000000 0.000000 0.000000 1.750895 12.193964 -28.661906 -5.241467 -13.650655 41.855576 0.085442 -5.275057 -3.132530 -0.004035 0.305568 -0.839661 -8.013725 -1.178872 14.576940 -0.057402 -2.636258 6.915281 4.834907 -1.528527 -0.444428 -0.368342 -0.948833 -6.718528 3.934069 -1.460180 4.034645 1.265433 -0.608705 2.485911 0.000000 0.000000 0.000000 17.484775 6.948248 -17.257133 45.686187 -51.098462 22.772079 27.917144 -14.387893 -17.077214 0.000000 0.000000 0.000000 -7.125000 0.000000 0.000000 0.020113 49.149670 0.000480 0.000000 0.000000 0.000000 -6.152645 17.207973 -15.011098 -18.667909 -29.003912 -4.868824 -9.689839 -27.697137 -23.310418 0.000000 0.000000 0.000000 7.125000 0.000000 0.000000 12.051766 6.796490 10.789466
10.848162 17.528297 2.699149 4.864713 -14.439743 -365.129699 0.000000 0.000000 0.000000 -8.994375 0.127664 -17.843846 6.949986 15.288763 48.683417 0.534310 4.322549 -16.071160 1.600906 -7.978740 -22.650232 0.000000 0.000000 0.000000 3.477103 13.951414 -27.175158 -5.347657 -13.764919 42.303815 0.218586 -8.659929 -5.986940 -0.113234 2.154654 -5.933720 -7.242263 -1.271260 14.243962 0.212999 -2.640358 6.532543 4.683672 -1.496013 -0.706501 -1.105771 -0.741624 -6.473643 4.225509 -1.152307 4.604738 1.508130 -0.455020 2.636521 0.000000 0.000000 0.000000 20.063908 6.438740 -16.335868 47.705210 -52.026416 24.353310 28.111828 -16.166275 -18.941016 0.000000 0.000000 0.000000 -7.125000 0.000000 0.000000 -0.108847 51.238962 0.018576 0.000000 0.000000 0.000000 -7.644442 17.250139 -13.064824 -18.577848 -28.890831 -4.825240 -8.634556 -27.503778 -22.684104 0.000000 0.000000 0.000000 7.125000 0.000000 0.000000 12.695430 7.516485 11.210647
10.999898 17.375737 2.816487 5.701405 -15.481969 -366.952028 0.000000 0.000000 0.000000 -9.473946 -1.029148 -16.638391 7.717575 15.907437 51.538720 0.597429 0.415623 -14.763799 0.803023 -5.717733 -15.967956 0.000000 0.000000 0.000000 2.313187 15.995743 -25.003647 -5.499209 -13.924749 42.937025 0.185390 -8.834024 -8.019911 -0.057528 1.547301 -4.256206 -7.427958 -0.984992 14.398827 -0.020205 -2.309174 6.602773 4.502185 -1.333225 -0.759950 -1.257699 -0.643456 -5.853207 3.506247 -0.967765 4.736027 1.306608 -0.393865 2.551276 0.000000 0.000000 0.000000 21.988797 5.707695 -15.463470 48.704964 -52.459666 25.143614 28.565410 -15.929949 -20.481600 0.000000 0.000000 0.000000 -7.125000 0.000000 0.000000 0.052408 53.019330 -0.010385 0.000000 0.000000 0.000000 -8.671258 17.135086 -12.706439 -18.771729 -29.134039 -4.919206 -6.828252 -24.948298 -24.265135 0.000000 0.000000 0.000000 7.125000 0.000000 0.000000 13.814864 6.142508 12.639327
11.243486 17.259631 2.879762 4.464838 -18.038428 -367.978414 0.000000 0.000000 0.000000 -7.826364 -2.109120 -14.743071 8.012526 16.128426 52.607593 0.547673 -6.167987 -13.251233 0.298659 -3.497992 -9.670051 0.000000 0.000000 0.000000 3.376192 17.144145 -24.521670 -5.637376 -14.067476 43.508454 0.098870 -7.130600 -7.360878 -0.115158 2.187772 -6.024726 -5.376428 -0.718561 15.209958 0.343265 -1.745264 6.507223 3.676114 -0.996397 -1.440728 -1.361031 -0.162176 -4.959245 3.041731 -0.284560 4.362977 1.193046 -0.079402 2.240713 0.000000 0.000000 0.000000 22.800182 5.696668 -14.087845 48.928372 -52.553923 25.320870 29.050145 -15.348887 -18.995259 0.000000 0.000000 0.000000 -7.125000 0.000000 0.000000 0.840316 51.471177 -0.134330 0.000000 0.000000 0.000000 -10.307819 16.419390 -11.559260 -18.879740 -29.268660 -4.972057 -7.462732 -24.005697 -24.772883 0.000000 0.000000 0.000000 7.125000 0.000000 0.000000 13.436167 5.587704 12.418239
11.576025 17.230763 2.931706 4.938477 -20.845032 -368.671494 0.000000 0.000000 0.000000 -9.039136 -4.866307 -11.871054 7.516540 15.751160 50.800808 0.461175 -9.942554 -13.043997 0.264606 -3.309171 -9.140718 0.000000 0.000000 0.000000 2.301078 16.919669 -24.928756 -5.407539 -13.828084 42.554043 -0.001117 -4.034430 -5.820794 -0.243982 3.178243 -8.775512 -4.711870 -0.587142 15.170607 0.269081 -1.490493 6.499850 3.182188 -0.859617 -1.480007 -0.055565 0.560536 -4.970489 1.110154 0.690416 4.524682 0.385222 0.374516 2.272590 0.000000 0.000000 0.000000 22.534039 5.505366 -12.106023 47.483336 -51.928162 24.178463 31.123411 -13.901269 -18.102932 0.000000 0.000000 0.000000 -7.125000 0.000000 0.000000 3.093980 50.854430 -0.445382 0.000000 0.000000 0.000000 -11.616303 15.049590 -9.704221 -20.155414 -30.827909 -5.611391 -9.935313 -23.888945 -24.040018 0.000000 0.000000 0.000000 7.125000 0.000000 0.000000 11.917043 6.051676 10.838505
11.933777 17.265614 2.968827 5.805453 -24.092125 -369.138698 0.000000 0.000000 0.000000 -10.953003 -7.370289 -8.327344 6.764773 15.129793 47.977651 0.445654 -12.295146 -13.730977 0.606791 -4.972753 -13.833492 0.000000 0.000000 0.000000 0.778592 18.478399 -24.460422 -4.754672 -13.100625 39.748809 -0.011327 -1.951705 -3.593697 -0.468066 4.366200 -12.112634 -5.098557 -0.380857 15.021698 0.529403 -1.271158 6.133007 3.643158 -0.746229 -1.789150 1.092956 1.325380 -4.775282 -0.831440 1.740779 5.190970 -0.390097 0.861470 2.482754 0.000000 0.000000 0.000000 20.951277 6.526785 -10.072670 45.586526 -51.051074 22.694440 32.048881 -11.868726 -18.793440 0.000000 0.000000 0.000000 -7.125000 0.000000 0.000000 3.965899 51.811670 -0.664483 0.000000 0.000000 0.000000 -13.476317 14.078917 -7.313081 -21.859671 -32.816649 -6.510276 -11.716693 -24.554693 -23.470521 0.000000 0.000000 0.000000 7.125000 0.000000 0.000000 10.804927 6.416226 9.708528
12.342407 17.332121 2.971982 6.335168 -28.105425 -368.869180 0.000000 0.000000 0.000000 -12.532098 -8.039017 -5.934797 5.873835 14.303537 44.470460 0.459585 -14.376125 -14.756128 0.849726 -5.867711 -16.404453 0.000000 0.000000 0.000000 -0.380278 20.973747 -24.316818 -3.940552 -12.079272 36.015189 0.003916 -1.247261 -0.812849 -0.399148 4.054454 -11.230184 -4.498666 -0.495467 14.190680 0.174737 -1.318517 6.111705 2.920023 -0.769092 -1.397084 3.149390 2.760836 -4.491054 -2.040557 3.589875 4.895345 -1.068132 1.786182 2.430889 0.000000 0.000000 0.000000 20.489073 6.993255 -8.334139 42.311032 -49.379097 20.176873 33.554042 -11.012414 -18.724002 0.000000 0.000000 0.000000 -7.125000 0.000000 0.000000 5.551677 52.028808 -0.963019 0.000000 0.000000 0.000000 -13.695711 12.063583 -4.269482 -24.553933 -35.739115 -8.030161 -14.437536 -26.985912 -25.628510 0.000000 0.000000 0.000000 7.125000 0.000000 0.000000 9.245680 3.919808 8.708166
12.744157 17.457016 2.935598 6.789483 -32.510056 -367.921280 0.000000 0.000000 0.000000 -13.924576 -6.721837 -5.291190 4.975964 13.356323 40.718012 0.754466 -12.872654 -16.756851 1.598097 -7.973003 -22.632207 0.000000 0.000000 0.000000 -1.487794 24.392713 -25.403757 -3.130513 -10.902688 31.953127 -0.036590 -2.683162 3.604649 -0.136258 2.363679 -6.512735 -5.659578 0.166559 13.661656 1.412400 -0.540647 5.362557 4.765560 -0.378334 -1.925253 3.601029 3.525580 -3.797295 -4.085941 4.730898 5.262794 -1.778230 2.308911 2.544254 0.000000 0.000000 0.000000 17.972692 8.074179 -9.365374 39.362951 -47.687262 17.966911 34.258407 -10.740923 -19.491334 0.000000 0.000000 0.000000 -7.125000 0.000000 0.000000 6.235447 53.055896 -1.239537 0.000000 0.000000 0.000000 -15.956480 11.885442 -1.053444 -28.174566 -39.275679 -10.234319 -15.422311 -30.451544 -25.432382 0.000000 0.000000 0.000000 7.125000 0.000000 0.000000 8.635454 3.977730 8.109791
13.129700 17.583017 2.846119 8.604000 -36.487812 -367.466042 0.000000 0.000000 0.000000 -16.445658 -4.042675 -6.417513 4.264302 12.503681 37.538458 1.151020 -10.196779 -19.409574 1.048193 -6.502179 -18.251694 0.000000 0.000000 0.000000 -3.780596 26.856625 -27.089620 -2.446872 -9.739924 28.139182 -0.200100 -6.660764 8.607977 -0.011396 0.656916 -1.805324 -7.008961 0.659231 13.113004 1.318424 -0.036788 4.700694 5.358903 -0.100571 -2.376881 4.330085 4.247228 -3.870280 -4.685352 5.700389 5.720528 -2.066366 2.786201 2.808484 0.000000 0.000000 0.000000 17.865469 8.931153 -11.248612 35.654739 -45.273092 15.276968 31.069729 -10.627591 -20.621358 0.000000 0.000000 0.000000 -7.125000 0.000000 0.000000 2.673318 53.677628 -0.571963 0.000000 0.000000 0.000000 -15.711783 11.585042 0.511986 -32.011880 -42.553169 -12.750095 -13.697685 -29.909593 -25.630573 0.000000 0.000000 0.000000 7.125000 0.000000 0.000000 9.693700 4.018972 9.124470
13.524482 17.745288 2.777280 9.066504 -39.922222 -367.143918 0.000000 0.000000 0.000000 -17.885734 -0.520710 -7.291804 3.657612 11.689532 34.643207 1.413589 -7.135187 -21.268749 1.025611 -6.429234 -18.039302 0.000000 0.000000 0.000000 -3.277916 25.794583 -28.068617 -1.930849 -8.719773 24.923192 -0.131474 -12.612366 10.562250 -0.107994 -2.027767 5.585791 -6.024380 0.761766 12.391972 0.988226 0.254707 5.098469 4.400475 0.012948 -1.614556 5.200730 4.899484 -4.161441 -5.352332 6.534849 5.175397 -2.405834 3.198912 2.793383 0.000000 0.000000 0.000000 18.064200 8.957183 -12.541226 33.253466 -43.521826 13.596980 24.756821 -9.121463 -22.211664 0.000000 0.000000 0.000000 -7.125000 0.000000 0.000000 -4.374600 54.139688 0.979505 0.000000 0.000000 0.000000 -14.654374 10.982645 2.672636 -36.896954 -46.104552 -16.170784 -13.124069 -29.013811 -25.543802 0.000000 0.000000 0.000000 7.125000 0.000000 0.000000 10.035867 4.181840 9.426158
13.833953 17.876051 2.669376 9.577534 -41.785558 -366.576998 0.000000 0.000000 0.000000 -18.897977 0.580370 -8.310701 3.196892 11.006658 32.302844 1.369369 -5.832923 -20.974833 0.629519 -5.076724 -14.127604 0.000000 0.000000 0.000000 -3.088121 24.887454 -28.837811 -1.754913 -8.335742 23.738586 0.443731 -15.874491 5.615756 -0.278710 -3.395198 9.381215 -8.818792 0.261690 14.302731 2.535940 -0.886055 3.236681 7.904481 -0.366754 -4.385265 5.019995 6.237909 -3.070197 -6.848980 8.538551 6.492809 -2.805390 4.151384 3.244251 0.000000 0.000000 0.000000 15.492100 12.795652 -13.807825 30.772175 -41.545452 11.918687 21.772195 -7.702669 -21.256788 0.000000 0.000000 0.000000 -7.125000 0.000000 0.000000 -7.127566 52.570854 1.329932 0.000000 0.000000 0.000000 -17.417805 13.826040 8.835520 -42.356047 -49.405331 -20.210559 -12.541820 -29.143428 -26.277490 0.000000 0.000000 0.000000 7.125000 0.000000 0.000000 10.426833 3.528389 9.935040
14.136258 17.958820 2.539349 9.087352 -43.017059 -365.791466 0.000000 0.000000 0.000000 -18.655544 0.328694 -9.135651 2.989167 10.677471 31.199627 1.198055 -6.359978 -19.558742 0.540033 -4.708315 -13.078589 0.000000 0.000000 0.000000 -2.033498 24.294847 -28.484954 -1.797741 -8.431365 24.032208 0.699922 -15.465543 -0.425054 -0.347694 -3.761781 10.410524 -8.125680 0.008036 15.240231 2.795777 -1.203675 2.823887 7.911515 -0.444402 -5.316196 5.470134 6.674340 -3.026822 -7.684502 9.157013 6.439795 -3.146322 4.443986 3.344032 0.000000 0.000000 0.000000 15.440048 13.576633 -16.392391 29.075874 -40.084095 10.811022 20.202083 -4.446170 -19.456615 0.000000 0.000000 0.000000 -7.125000 0.000000 0.000000 -8.111610 50.432109 1.092458 0.000000 0.000000 0.000000 -16.725799 15.039089 10.478243 -46.627503 -51.529247 -23.509831 -12.278714 -27.994539 -27.821079 0.000000 0.000000 0.000000 7.125000 0.000000 0.000000 10.672593 2.032314 10.472696
